<?xml version="1.0" standalone="no"?>
<!DOCTYPE svg PUBLIC "-//W3C//DTD SVG 20010904//EN"
 "http://www.w3.org/TR/2001/REC-SVG-20010904/DTD/svg10.dtd">
<svg version="1.0" xmlns="http://www.w3.org/2000/svg"
 width="260.000000pt" height="232.000000pt" viewBox="0 0 260.000000 232.000000"
 preserveAspectRatio="xMidYMid meet">

<g transform="translate(0.000000,232.000000) scale(0.100000,-0.100000)"
fill="#000000" stroke="none">
<path d="M603 1793 l-103 -67 0 -59 c0 -44 3 -56 13 -51 6 4 46 30 87 59 41
28 81 55 88 59 9 6 12 -56 12 -293 l0 -300 -102 -3 -103 -3 -3 -52 -3 -53 276
0 276 0 -3 53 -3 52 -102 3 -103 3 0 359 0 360 -62 0 c-61 0 -67 -3 -165 -67z"/>
<path d="M1220 1193 c-228 -366 -421 -676 -428 -689 l-13 -24 73 0 73 1 373
602 c205 331 397 641 427 690 l55 87 -73 0 -72 0 -415 -667z"/>
<path d="M1652 1302 c-76 -27 -130 -79 -158 -149 -24 -62 -16 -73 56 -73 50 0
60 3 60 18 0 29 37 80 71 97 40 21 126 22 166 2 40 -21 67 -85 58 -139 -4 -22
-21 -58 -39 -80 -31 -42 -58 -65 -219 -190 -49 -39 -106 -94 -132 -129 -41
-56 -45 -66 -45 -120 l0 -59 295 0 295 0 0 55 0 55 -215 0 c-140 0 -215 4
-215 10 0 20 86 104 180 175 168 127 229 211 230 310 0 101 -37 163 -124 207
-59 30 -193 35 -264 10z"/>
</g>
</svg>
